<svg width="18" height="27" viewBox="0 0 18 27" fill="none" xmlns="http://www.w3.org/2000/svg">
<path fill-rule="evenodd" clip-rule="evenodd" d="M8.73267 23.1782C9.14851 22.5347 9.57426 21.6832 10.1089 20.8416C10.6337 19.7723 11.2772 18.7228 11.9208 17.5545C12.8713 15.6337 13.9406 13.7228 14.5842 11.9208C15.1089 10.6337 15.4356 9.35644 15.4356 8.61386C15.4356 8.18812 15.4356 7.76238 15.3267 7.34653C15.2277 6.92079 15.1188 6.49505 15.0099 6.07921C14.7921 5.75248 14.5842 5.33663 14.3762 5.0099C14.0495 4.58416 13.8416 4.26733 13.5248 3.9604C13.198 3.63366 12.8812 3.41584 12.4554 3.19802C12.1386 2.89109 11.7129 2.67327 11.2871 2.57426C10.9703 2.35644 10.5446 2.24752 10.0099 2.14851C9.57426 2.14851 9.15842 2.0495 8.74257 2.0495C8.29703 2.0495 7.89109 2.14851 7.46535 2.14851C7.0297 2.24752 6.61386 2.35644 6.18812 2.57426C5.76238 2.67327 5.33663 2.90099 5.0099 3.19802C4.69307 3.41584 4.26733 3.64356 3.9505 3.9604C3.74257 4.26733 3.42574 4.58416 3.09901 5.0099C2.89109 5.33663 2.66337 5.75248 2.56436 6.07921C2.35644 6.50495 2.24752 6.93069 2.13861 7.34653C2.0297 7.77228 2.0297 8.19802 2.0297 8.61386C2.0297 9.46535 2.45545 10.8515 3.09901 12.4455C3.73267 14.0396 4.69307 15.8416 5.54455 17.5446C6.28713 18.9208 7.13861 20.3069 7.78218 21.4752C8.10891 22.099 8.52475 22.6436 8.75248 23.1683L8.73267 23.1782ZM11.0693 6.92079C10.5248 6.27723 9.68317 5.9505 8.73267 5.9505C7.78218 5.9505 6.92079 6.27723 6.38614 6.92079C5.75248 7.56436 5.42574 8.29703 5.42574 9.25743C5.42574 10.2178 5.74257 10.9505 6.38614 11.5941C6.92079 12.1188 7.77228 12.5446 8.73267 12.5446C9.69307 12.5446 10.5347 12.1188 11.0693 11.5941C11.6931 10.9505 12.1287 10.2079 12.1287 9.25743C12.1287 8.30693 11.6931 7.56436 11.0693 6.92079ZM8.73267 4.58416C10 4.58416 11.1782 5.10891 12.0198 5.9604C12.8713 6.82178 13.4059 7.9901 13.4059 9.26733C13.4059 10.5446 12.8614 11.7129 12.0198 12.5545C11.1683 13.297 10 13.8218 8.73267 13.8218C7.46535 13.8218 6.27723 13.297 5.42574 12.5545C4.57426 11.703 4.0396 10.5347 4.0396 9.26733C4.0396 8 4.57426 6.82178 5.42574 5.9604C6.27723 5.10891 7.45545 4.58416 8.73267 4.58416ZM17.5644 8.62376C17.5644 13.0792 9.68317 25.4257 9.57426 25.6337L9.25743 26.2772L8.73267 27.0099L8.18812 26.1584L7.87129 25.6337L7.76238 25.5347C7.55446 25.1089 5.63366 22.1287 3.82178 18.7327C1.91089 15.1089 0 10.8515 0 8.61386C0 8.08911 0 7.44554 0.0990099 6.92079C0.207921 6.39604 0.425743 5.85149 0.633663 5.32673C0.841584 4.80198 1.16832 4.37624 1.37624 3.83168C1.70297 3.40594 2.11881 2.9802 2.54455 2.56436C2.9703 2.13861 3.39604 1.82178 3.81188 1.49505C4.34653 1.16832 4.77228 0.871287 5.41584 0.643564C5.94059 0.435644 6.48515 0.316832 7.0099 0.217822C7.54455 0.118812 8.17822 0 8.72277 0C9.34653 0 9.89109 0.118812 10.4158 0.217822C11.0594 0.316832 11.5842 0.435644 12.1188 0.643564C12.6535 0.861386 13.0792 1.16832 13.604 1.49505C14.1386 1.82178 14.5743 2.13861 14.8812 2.56436C15.7426 3.30693 16.3762 4.25743 16.802 5.32673C17.0099 5.85149 17.2277 6.27723 17.3366 6.82178C17.3366 7.0297 17.4356 7.34653 17.4356 7.67327H17.5446V8.62376H17.5644Z" fill="white"/>
</svg>
