<svg width="28" height="32" viewBox="0 0 28 32" fill="none" xmlns="http://www.w3.org/2000/svg">
<g clip-path="url(#clip0_116_957)">
<path d="M22.1626 22.4401C21.1179 20.6499 20.0305 19.8647 18.3686 20.8104L17.9396 21.0673C15.2362 21.024 13.7214 17.4916 13.207 16.8702C12.9189 16.114 10.5954 13.0681 11.8584 10.642L12.2874 10.3851C13.905 9.36396 13.7499 8.01685 12.7052 6.22658C11.7761 4.63541 11.3092 3.15824 9.94007 3.97871L9.08218 4.49572C8.03119 5.12673 7.23979 5.99377 6.79343 6.89934C6.79343 6.89934 5.43696 9.17611 6.11282 12.2782C6.29168 13.0986 6.60033 13.8629 7.01186 14.5678L9.61401 19.0282L12.2162 23.4886C12.6277 24.1935 13.1405 24.8357 13.7626 25.3897C16.1178 27.4834 18.7374 27.3726 18.7374 27.3726C19.7361 27.4111 20.8647 27.1253 21.9156 26.4943L22.7735 25.9789C24.1427 25.1584 23.0917 24.0313 22.1626 22.4401Z" stroke="white" stroke-width="1.5" stroke-miterlimit="10"/>
</g>
<defs>
<clipPath id="clip0_116_957">
<rect width="28" height="32" fill="white"/>
</clipPath>
</defs>
</svg>
