<svg width="28" height="20" viewBox="0 0 28 20" fill="none" xmlns="http://www.w3.org/2000/svg">
<path d="M27.8811 19.218C27.8811 19.218 27.891 19.2031 27.896 19.1932C27.9009 19.1833 27.9059 19.1734 27.9158 19.1635C27.9207 19.1536 27.9257 19.1437 27.9306 19.1388C27.9306 19.1289 27.9406 19.1189 27.9455 19.109C27.9455 19.0991 27.9554 19.0892 27.9604 19.0793C27.9604 19.0694 27.9653 19.0595 27.9703 19.0546C27.9703 19.0446 27.9802 19.0298 27.9802 19.0199C27.9802 19.01 27.9802 19.0001 27.9851 18.9951C27.9851 18.9852 27.9901 18.9704 27.995 18.9604C27.995 18.9505 27.995 18.9406 27.995 18.9307C27.995 18.9208 27.995 18.9109 27.995 18.901C27.995 18.8911 27.995 18.8762 27.995 18.8614C27.995 18.8564 27.995 18.8465 27.995 18.8416V0.653705C27.995 0.653705 27.995 0.638845 27.995 0.633892C27.995 0.619033 27.995 0.609127 27.995 0.594267C27.995 0.584361 27.995 0.574455 27.995 0.564549C27.995 0.554642 27.995 0.539783 27.9901 0.529877C27.9901 0.519971 27.9901 0.510064 27.9851 0.500158C27.9851 0.490252 27.9802 0.480345 27.9752 0.465486C27.9752 0.45558 27.9703 0.445674 27.9653 0.435767C27.9653 0.425861 27.9604 0.415955 27.9554 0.406049C27.9554 0.396142 27.9455 0.386236 27.9406 0.37633C27.9406 0.366424 27.9306 0.356517 27.9257 0.346611C27.9207 0.336705 27.9158 0.326799 27.9059 0.316892C27.9059 0.306986 27.896 0.302033 27.891 0.292127C27.8861 0.282221 27.8762 0.272314 27.8712 0.262408C27.8712 0.257455 27.8613 0.252502 27.8613 0.247549C27.8514 0.237642 27.8464 0.227736 27.8365 0.21783C27.8316 0.212877 27.8217 0.202971 27.8167 0.198017C27.8118 0.193064 27.8019 0.183158 27.7969 0.178205C27.787 0.168299 27.7821 0.163346 27.7721 0.153439C27.7672 0.153439 27.7622 0.143533 27.7573 0.143533C27.7474 0.133627 27.7325 0.123721 27.7226 0.118768C27.7226 0.118768 27.7127 0.118768 27.7127 0.113814C27.6979 0.103908 27.683 0.0940019 27.6731 0.0890488C27.6632 0.0890488 27.6582 0.0791425 27.6483 0.0791425C27.6384 0.0741894 27.6285 0.0692363 27.6186 0.0642832C27.6037 0.0593301 27.5938 0.0543769 27.579 0.0494238C27.574 0.0494238 27.5641 0.0494238 27.5592 0.0444707C27.5443 0.0444707 27.5344 0.0395176 27.5195 0.0345644C27.5096 0.0345644 27.5047 0.0345644 27.4948 0.0296113C27.4849 0.0296113 27.475 0.0296113 27.4601 0.0246582C27.4502 0.0246582 27.4403 0.0246582 27.4304 0.0246582C27.4205 0.0246582 27.4106 0.0246582 27.4056 0.0246582C27.3908 0.0246582 27.3809 0.0246582 27.366 0.0246582C27.366 0.0246582 27.366 0.0246582 27.361 0.0246582H0.653803H0.643897C0.63399 0.0246582 0.619131 0.0246582 0.609225 0.0246582C0.599319 0.0246582 0.589412 0.0246582 0.579506 0.0246582C0.5696 0.0246582 0.559694 0.0246582 0.549787 0.0246582C0.539881 0.0246582 0.525022 0.0246582 0.515115 0.0296113C0.505209 0.0296113 0.495303 0.0296113 0.49035 0.0345644C0.480444 0.0345644 0.465584 0.0395176 0.455678 0.0444707C0.445772 0.0444707 0.440819 0.0494238 0.430912 0.0543769C0.421006 0.0543769 0.4111 0.0642832 0.396241 0.0692363C0.386334 0.0692363 0.376428 0.0791426 0.366522 0.0840957C0.356616 0.0840957 0.346709 0.0940019 0.336803 0.098955C0.326897 0.103908 0.316991 0.108861 0.307084 0.118768C0.297178 0.123721 0.292225 0.128674 0.282319 0.133627C0.272412 0.13858 0.262506 0.148486 0.2526 0.153439C0.247647 0.158393 0.237741 0.163346 0.232787 0.168299C0.222881 0.173252 0.217928 0.183158 0.208022 0.193064C0.203069 0.198017 0.193163 0.207924 0.188209 0.212877C0.183256 0.21783 0.17335 0.227736 0.168397 0.237642C0.158491 0.247549 0.153538 0.257455 0.143631 0.262408C0.143631 0.262408 0.138678 0.267361 0.133725 0.272314C0.133725 0.272314 0.128772 0.282221 0.123819 0.287174C0.118866 0.29708 0.108959 0.306986 0.104006 0.316892C0.0990532 0.326799 0.0941001 0.331752 0.0891469 0.341658C0.0841938 0.351564 0.0792407 0.361471 0.0742876 0.371377C0.0742876 0.381283 0.0643813 0.391189 0.0594282 0.396142C0.0594282 0.406049 0.049522 0.415955 0.0445688 0.425861C0.0445688 0.435767 0.0346626 0.445674 0.0346626 0.45558C0.0346626 0.465486 0.0297095 0.475392 0.0247563 0.485299C0.0247563 0.495205 0.0198032 0.505111 0.0148501 0.515017C0.0148501 0.524924 0.0148501 0.53483 0.00989697 0.544736C0.00989697 0.554642 0.00989697 0.569502 0.00494385 0.579408C0.00494385 0.589314 0.00494385 0.59922 0.00494385 0.609127C0.00494385 0.619033 0.00494385 0.633892 0.00494385 0.643799C0.00494385 0.648752 0.00494385 0.653705 0.00494385 0.658658V18.8416C0.00494385 18.8416 0.00494385 18.8515 0.00494385 18.8614C0.00494385 18.8713 0.00494385 18.8862 0.00494385 18.8961C0.00494385 18.906 0.00494385 18.9159 0.00494385 18.9258C0.00494385 18.9357 0.00494385 18.9456 0.00494385 18.9555C0.00494385 18.9654 0.00494385 18.9803 0.00989697 18.9902C0.00989697 19.0001 0.00989697 19.01 0.0148501 19.0149C0.0148501 19.0248 0.0198032 19.0397 0.0247563 19.0496C0.0247563 19.0595 0.0297095 19.0694 0.0346626 19.0744C0.0346626 19.0843 0.0445688 19.0942 0.049522 19.1041C0.049522 19.114 0.0594282 19.1239 0.0643813 19.1338C0.0643813 19.1437 0.0742876 19.1536 0.0792407 19.1586C0.0841938 19.1685 0.0891469 19.1784 0.0990532 19.1883C0.104006 19.1982 0.108959 19.2031 0.113913 19.2131C0.118866 19.223 0.128772 19.2329 0.133725 19.2428C0.138678 19.2477 0.143631 19.2576 0.153538 19.2626C0.163444 19.2725 0.168397 19.2824 0.178303 19.2874C0.183256 19.2923 0.193163 19.3022 0.198116 19.3072C0.208022 19.3121 0.212975 19.322 0.222881 19.327C0.232787 19.3369 0.242694 19.3418 0.2526 19.3517C0.2526 19.3517 0.262506 19.3616 0.267459 19.3616C0.267459 19.3616 0.272412 19.3616 0.277366 19.3666C0.282319 19.3666 0.292225 19.3765 0.297178 19.3815C0.307084 19.3864 0.316991 19.3914 0.326897 19.4013C0.33185 19.4013 0.341756 19.4112 0.346709 19.4112C0.356616 19.4161 0.371475 19.4211 0.381381 19.426C0.386334 19.426 0.391287 19.431 0.396241 19.431C0.416053 19.4409 0.430912 19.4459 0.450725 19.4508C0.450725 19.4508 0.455678 19.4508 0.460631 19.4508C0.47549 19.4508 0.49035 19.4607 0.510162 19.4607C0.515115 19.4607 0.520069 19.4607 0.525022 19.4607C0.539881 19.4607 0.55474 19.4657 0.5696 19.4657C0.574553 19.4657 0.579506 19.4657 0.584459 19.4657C0.604272 19.4657 0.624084 19.4657 0.643897 19.4657H27.3511C27.3709 19.4657 27.3908 19.4657 27.4106 19.4657C27.4106 19.4657 27.4205 19.4657 27.4254 19.4657C27.4403 19.4657 27.4551 19.4657 27.47 19.4607C27.475 19.4607 27.4799 19.4607 27.4849 19.4607C27.5047 19.4607 27.5195 19.4508 27.5394 19.4459C27.5592 19.4409 27.574 19.431 27.5938 19.426C27.5988 19.426 27.6037 19.4211 27.6087 19.4161C27.6186 19.4112 27.6335 19.4062 27.6434 19.4013C27.6483 19.4013 27.6582 19.3963 27.6632 19.3914C27.6731 19.3864 27.683 19.3815 27.6929 19.3716C27.6979 19.3716 27.7078 19.3616 27.7127 19.3567C27.7127 19.3567 27.7127 19.3567 27.7177 19.3567C27.7226 19.3567 27.7276 19.3468 27.7325 19.3468C27.7424 19.3418 27.7523 19.3319 27.7622 19.322C27.7721 19.3171 27.7771 19.3072 27.787 19.3022C27.7969 19.2973 27.8019 19.2874 27.8068 19.2824C27.8167 19.2725 27.8217 19.2675 27.8316 19.2576C27.8365 19.2527 27.8415 19.2428 27.8514 19.2378C27.8613 19.2279 27.8663 19.218 27.8712 19.2081L27.8811 19.218ZM1.30266 1.96628L8.24694 7.2364L1.30266 16.8306V1.96628ZM14.2848 10.1736L2.59047 1.30256H25.4789L14.2848 10.1736ZM9.2871 8.019L13.8985 11.5159C14.0173 11.6051 14.156 11.6496 14.2947 11.6496C14.4334 11.6496 14.582 11.6001 14.7009 11.5109L18.9358 8.15273L26.0831 18.1878H1.92676L9.2871 8.019ZM19.9561 7.34042L26.6924 2.00095V16.8009L19.9561 7.34042Z" fill="white"/>
</svg>
